<?xml version="1.0" standalone="no"?>
<!DOCTYPE svg PUBLIC "-//W3C//DTD SVG 20010904//EN"
 "http://www.w3.org/TR/2001/REC-SVG-20010904/DTD/svg10.dtd">
<svg version="1.0" xmlns="http://www.w3.org/2000/svg"
 width="96.000000pt" height="96.000000pt" viewBox="0 0 96.000000 96.000000"
 preserveAspectRatio="xMidYMid meet">

<g transform="translate(0.000000,96.000000) scale(0.100000,-0.100000)"
fill="#000000" stroke="none">
<path d="M355 865 c-5 -1 -30 -8 -55 -16 -25 -7 -49 -16 -54 -21 -15 -12 -26
-10 -26 7 0 12 -17 15 -90 15 l-90 0 2 -187 3 -188 85 0 85 0 3 27 c5 44 45
68 111 67 31 0 78 -6 106 -12 l49 -12 -65 -47 c-130 -92 -188 -191 -197 -333
l-5 -85 265 0 265 0 6 153 c3 108 11 175 26 231 23 85 84 213 138 289 19 27
33 50 31 52 -2 2 -27 17 -56 34 l-53 31 -36 -27 c-43 -33 -91 -34 -239 -4
-105 20 -192 31 -209 26z m278 -270 c-3 -9 -8 -14 -10 -11 -3 3 -2 9 2 15 9
16 15 13 8 -4z m-23 -19 c0 -2 -8 -10 -17 -17 -16 -13 -17 -12 -4 4 13 16 21
21 21 13z m-55 -42 c-26 -20 -55 -36 -55 -30 0 5 63 46 70 46 3 -1 -4 -8 -15
-16z"/>
</g>
</svg>
