<?xml version="1.0" standalone="no"?>
<!DOCTYPE svg PUBLIC "-//W3C//DTD SVG 20010904//EN"
 "http://www.w3.org/TR/2001/REC-SVG-20010904/DTD/svg10.dtd">
<svg version="1.0" xmlns="http://www.w3.org/2000/svg"
 width="512.000000pt" height="512.000000pt" viewBox="0 0 512.000000 512.000000"
 preserveAspectRatio="xMidYMid meet">

<g transform="translate(0.000000,512.000000) scale(0.100000,-0.100000)"
fill="#000000" stroke="none">
<path d="M495 3598 c-50 -152 -168 -292 -307 -363 l-78 -40 0 -795 0 -795 78
-40 c139 -71 257 -211 307 -362 l17 -53 2088 0 2088 0 17 53 c49 151 170 294
308 362 l77 38 0 797 0 797 -77 38 c-138 68 -259 211 -308 363 l-17 52 -2088
0 -2088 0 -17 -52z m2336 -1063 c221 -640 193 -572 240 -579 l39 -6 0 -70 0
-70 -200 0 -200 0 0 70 0 70 39 6 39 6 -25 74 -25 74 -188 0 -188 0 -25 -74
-25 -74 39 -6 39 -6 0 -70 0 -70 -190 0 -190 0 0 70 0 70 39 6 c46 7 18 -60
231 554 82 239 152 441 155 448 3 9 34 12 126 10 l122 -3 148 -430z m-1231
411 c129 -28 218 -85 263 -170 18 -34 22 -58 22 -133 0 -86 -2 -94 -30 -135
-17 -23 -52 -57 -78 -75 l-47 -31 33 -11 c47 -16 103 -65 135 -119 24 -42 27
-56 27 -142 0 -84 -3 -102 -28 -152 -17 -34 -46 -72 -70 -92 -109 -88 -156
-96 -559 -96 l-328 0 0 79 c0 88 -4 84 78 96 l42 7 0 413 0 414 -37 6 c-89 14
-83 8 -83 85 l0 70 298 0 c216 0 315 -4 362 -14z m2268 -1 c85 -20 136 -48
193 -105 55 -55 79 -120 79 -209 -1 -100 -46 -181 -126 -230 -24 -14 -44 -29
-44 -32 0 -4 11 -10 25 -13 41 -10 101 -72 125 -129 16 -37 25 -80 29 -149 7
-105 15 -121 74 -134 26 -6 27 -8 27 -75 l0 -69 -92 0 c-120 1 -165 19 -204
85 -23 41 -28 62 -34 159 -7 120 -13 136 -57 179 -40 38 -80 47 -205 47 l-108
0 0 -154 0 -154 43 -7 c80 -12 77 -9 77 -86 l0 -69 -237 0 -238 0 3 75 c4 81
1 78 80 90 l42 7 0 413 0 414 -37 6 c-89 14 -83 8 -83 85 l0 70 303 0 c231 0
317 -4 365 -15z"/>
<path d="M2504 2498 l-61 -193 63 -3 c35 -2 93 -2 128 0 l63 3 -61 193 c-33
105 -63 192 -66 192 -3 0 -33 -87 -66 -192z"/>
<path d="M1300 2645 l0 -157 129 3 c144 4 162 12 209 80 43 61 20 150 -51 203
-24 17 -46 21 -157 24 l-130 4 0 -157z"/>
<path d="M1300 2160 l0 -172 149 4 c163 3 178 8 225 72 30 39 30 153 0 192
-47 64 -62 69 -225 72 l-149 4 0 -172z"/>
<path d="M3560 2624 l0 -166 123 4 c88 3 131 9 154 21 94 50 111 171 34 248
-46 46 -91 59 -213 59 l-98 0 0 -166z"/>
</g>
</svg>
