<?xml version="1.0" standalone="no"?>
<!DOCTYPE svg PUBLIC "-//W3C//DTD SVG 20010904//EN"
 "http://www.w3.org/TR/2001/REC-SVG-20010904/DTD/svg10.dtd">
<svg version="1.0" xmlns="http://www.w3.org/2000/svg"
 width="512.000000pt" height="512.000000pt" viewBox="0 0 512.000000 512.000000"
 preserveAspectRatio="xMidYMid meet">

<g transform="translate(0.000000,512.000000) scale(0.100000,-0.100000)"
fill="#000000" stroke="none">
<path d="M1658 5018 c4 -3 36 -18 72 -33 89 -37 242 -115 335 -170 42 -25 82
-45 88 -45 22 0 212 -97 229 -116 9 -10 18 -29 20 -40 4 -30 167 -157 188
-148 53 24 74 17 170 -57 204 -155 494 -419 665 -604 54 -59 101 -103 103 -97
6 18 -38 256 -73 402 -94 380 -234 686 -398 865 l-46 50 -134 -133 -134 -134
-39 25 c-153 96 -417 179 -694 217 -103 14 -362 28 -352 18z"/>
<path d="M1849 4070 c-265 -33 -492 -235 -559 -496 -23 -91 -26 -210 -6 -304
8 -36 13 -66 12 -67 -1 -1 -31 -7 -67 -12 -152 -25 -279 -91 -382 -200 -80
-85 -118 -149 -154 -256 -22 -68 -26 -97 -26 -200 -1 -105 3 -130 27 -200 15
-44 23 -81 19 -82 -46 -16 -149 -92 -208 -155 -176 -187 -227 -442 -140 -693
l25 -70 -37 -29 c-147 -115 -238 -273 -264 -460 -56 -397 267 -766 671 -766
202 0 406 98 527 251 31 40 52 59 62 55 9 -3 41 -14 72 -25 242 -87 507 -24
694 163 47 47 93 104 110 137 l28 56 67 -23 c189 -66 394 -45 567 57 72 44
178 150 222 222 45 76 80 176 88 249 3 32 9 61 13 63 4 3 38 -2 76 -10 184
-39 382 8 539 128 101 77 168 169 219 302 28 75 30 89 31 215 0 82 -5 151 -13
177 -12 41 -15 43 -80 62 -37 11 -105 29 -152 41 -116 28 -178 60 -237 123
-161 170 -200 469 -118 907 7 41 16 93 20 114 l6 39 -31 -26 c-40 -34 -74 -34
-107 -1 -22 22 -25 32 -20 70 6 59 -4 65 -83 48 -152 -31 -324 -47 -470 -41
-225 8 -351 50 -458 151 -68 64 -105 136 -137 268 -46 193 -45 191 -100 205
-68 17 -170 23 -246 13z m-12 -275 c49 -20 69 -49 89 -127 20 -76 14 -174 -12
-219 -27 -45 -123 -101 -183 -107 -73 -7 -113 4 -157 42 -38 33 -39 36 -39 97
0 114 89 259 188 308 50 25 65 26 114 6z m892 -784 c42 -22 97 -80 112 -118
11 -29 -4 -103 -29 -145 -37 -63 -125 -87 -174 -48 -49 38 -85 156 -73 236 13
88 79 118 164 75z m-1532 -96 c49 -20 69 -49 89 -127 20 -76 14 -174 -12 -219
-27 -45 -123 -101 -183 -107 -73 -7 -113 4 -157 42 -38 33 -39 36 -39 97 0
114 89 259 188 308 50 25 65 26 114 6z m761 -677 c76 -46 101 -120 66 -194
-36 -76 -121 -100 -170 -47 -24 26 -54 108 -54 147 0 53 21 98 53 111 36 16
56 12 105 -17z m1490 -267 c45 -24 97 -76 111 -114 13 -35 -1 -107 -30 -154
-38 -61 -122 -82 -171 -43 -49 38 -85 156 -73 236 13 87 79 118 163 75z
m-2765 -48 c23 -27 39 -100 32 -144 -8 -44 -38 -73 -95 -90 -70 -21 -130 13
-130 74 1 110 136 223 193 160z m396 -377 c48 -25 91 -82 91 -122 0 -45 -21
-93 -53 -122 -19 -18 -34 -23 -68 -20 -37 3 -47 8 -66 37 -48 71 -54 180 -12
222 23 23 69 25 108 5z m1569 -135 c45 -24 97 -76 111 -114 13 -35 -1 -107
-30 -154 -38 -61 -122 -82 -171 -43 -49 38 -85 156 -73 236 13 87 79 118 163
75z m-2209 -505 c48 -25 91 -82 91 -122 0 -45 -21 -93 -53 -122 -19 -18 -34
-23 -68 -20 -37 3 -47 8 -66 37 -48 71 -54 180 -12 222 23 23 69 25 108 5z"/>
<path d="M3340 3625 c34 -49 66 -90 72 -90 31 0 13 33 -57 103 l-77 77 62 -90z"/>
<path d="M3934 3298 c394 -395 681 -776 816 -1087 34 -80 34 -107 -2 -141 -29
-27 -76 -26 -107 3 -21 19 -20 13 14 -48 142 -261 188 -335 233 -372 26 -21
69 -58 96 -83 l49 -45 -6 170 c-13 381 -86 714 -207 943 -28 52 -48 97 -46 99
2 3 53 16 113 29 59 14 117 28 128 31 17 5 11 14 -45 65 -211 192 -639 419
-1078 572 -74 25 -135 46 -137 46 -2 0 78 -82 179 -182z"/>
<path d="M4423 2448 c13 -24 59 -107 102 -186 43 -78 80 -141 82 -138 7 6 -83
179 -143 277 -56 90 -86 124 -41 47z"/>
</g>
</svg>
