<svg xmlns="http://www.w3.org/2000/svg" enable-background="new 0 0 512 512" viewBox="0 0 512 512" id="lemon">
  <path fill="#f5ce31" d="M341.012,109.031c7.726-17.074,4.58-37.866-9.455-51.901s-34.827-17.181-51.901-9.455
		C214.713,14.354,125.752,31.094,62.978,93.868C0.205,156.642-16.535,245.603,16.785,310.546
		c-7.726,17.074-4.58,37.866,9.455,51.901s34.827,17.181,51.901,9.455c64.943,33.321,153.905,16.581,216.678-46.193
		S374.333,173.974,341.012,109.031z"></path>
  <circle cx="191.782" cy="67.216" r="9.572" fill="#f5a818"></circle>
  <circle cx="150.422" cy="86.359" r="9.572" fill="#f5a818"></circle>
  <circle cx="216.567" cy="89.671" r="9.572" fill="#f5a818"></circle>
  <circle cx="175.808" cy="112.77" r="9.572" fill="#f5a818"></circle>
  <path d="M200.026,381.74c78.324-19.589,149.184-100.561,156.398-178.7c-108.247-72.695-244.476,18.982-223.341,143.604
		C12.747,288.354,30.165,123.706,137.39,44.638C27.413,88.451-30.946,215.949,16.785,310.546
		c-17.717,41.969,24.965,77.838,61.347,61.359C113.526,390.225,158.417,393.456,200.026,381.74z" enable-background="new" opacity=".15"></path>
  <path fill="#57a633" d="M430.521,228.26c55.342-18.806,81.472-89.182,81.472-89.182S448.395,99.194,393.053,118
				s-53.75,79.761-53.75,79.761S375.178,247.067,430.521,228.26z"></path>
  <path fill="#407a26" d="M512,139.08c0,0-63.612-39.883-118.942-21.078c-55.343,18.8-53.763,79.763-53.763,79.763L512,139.08z"></path>
  <path fill="#57a633" d="M407.484,157.317c25.835-52.431-5.452-120.671-5.452-120.671s-73.173,16.768-99.008,69.199
				s18.393,94.407,18.393,94.407S381.649,209.749,407.484,157.317z"></path>
  <path fill="#407a26" d="M402.039,36.643c0,0-73.182,16.779-99.009,69.2c-25.84,52.427,18.385,94.417,18.385,94.417L402.039,36.643z"></path>
  <path fill="#f5ce31" d="M319.009,169.116c-86.155,0-155.997,69.842-155.997,155.997c0,5.041,0.248,10.024,0.716,14.943
		c-8.051,7.534-13.089,18.248-13.089,30.144c0,21.825,16.938,39.682,38.383,41.173c27.948,42.031,75.728,69.737,129.987,69.737
		c86.155,0,155.997-69.842,155.997-155.997C475.006,238.958,405.164,169.116,319.009,169.116z"></path>
  <ellipse cx="345.008" cy="319.697" fill="#f5ce31" rx="137.506" ry="153.787" transform="rotate(-18.33 344.994 319.684)"></ellipse>
  <ellipse cx="345.008" cy="319.697" fill="#fff7d8" rx="121.447" ry="135.827" transform="rotate(-18.33 344.994 319.684)"></ellipse>
  <ellipse cx="345.008" cy="319.697" fill="#f5ce31" rx="14.721" ry="16.464" transform="rotate(-18.33 344.994 319.684)"></ellipse>
  <path fill="#f5ce31" d="M313.725 310.063l-54.206-31.131c-3.33-1.912-7.22-.236-8.266 3.52-4.598 16.509-5.425 34.634-1.829 52.876.776 3.938 4.532 6.443 7.945 5.312l55.938-18.532C318.312 320.448 318.576 312.849 313.725 310.063zM298.445 222.427c-14.84 7.654-26.941 19.304-35.654 33.45-1.982 3.218-.81 7.802 2.52 9.714l54.206 31.131c4.851 2.786 9.975-2.023 8.12-7.622l-20.727-62.561C305.646 222.722 301.648 220.775 298.445 222.427zM319.925 222.227l20.727 62.561c1.855 5.599 8.836 6.397 11.064 1.266l24.896-57.338c1.529-3.522-.267-7.899-3.778-9.297-15.436-6.146-32.099-8.266-48.573-5.546C320.705 214.461 318.661 218.41 319.925 222.227zM318.128 336.663l-55.938 18.532c-3.413 1.131-4.93 5.383-3.201 9.005 8.007 16.78 19.493 30.826 33.038 41.324 3.082 2.388 7.203 1.41 8.732-2.112l24.896-57.338C327.884 340.943 323.134 335.005 318.128 336.663zM371.856 302.709l55.938-18.532c3.413-1.131 4.93-5.383 3.201-9.005-8.007-16.78-19.493-30.826-33.038-41.324-3.082-2.388-7.203-1.41-8.732 2.112l-24.896 57.338C362.1 298.429 366.85 304.367 371.856 302.709zM376.259 329.309l54.206 31.131c3.33 1.912 7.22.236 8.266-3.52 4.598-16.509 5.425-34.634 1.829-52.876-.776-3.938-4.532-6.443-7.945-5.312l-55.938 18.532C371.672 318.924 371.408 326.523 376.259 329.309zM338.268 353.318l-24.896 57.338c-1.529 3.522.267 7.899 3.778 9.297 15.436 6.146 32.099 8.266 48.573 5.546 3.556-.587 5.6-4.536 4.336-8.353l-20.727-62.561C347.477 348.985 340.496 348.186 338.268 353.318zM362.347 350.271l20.727 62.561c1.265 3.817 5.262 5.765 8.466 4.112 14.84-7.654 26.941-19.304 35.654-33.45 1.982-3.218.81-7.802-2.52-9.714l-54.206-31.131C365.616 339.864 360.492 344.673 362.347 350.271z"></path>
</svg>
